<svg width="6070" height="1418" viewBox="0 0 6070 1418" fill="none" xmlns="http://www.w3.org/2000/svg" xmlns:xlink="http://www.w3.org/1999/xlink">
  
  <rect width="1417.5" height="1417.5" fill="url(#pattern_sparsa_mark)"></rect>

  
  <g fill="#31382E">
    <path d="M2043.37 413.863C2039.23 377.132 2022.15 348.678 1992.14 328.501C1962.13 308.066 1924.35 297.848 1878.82 297.848C1846.22 297.848 1818.02 303.022 1794.22 313.369C1770.42 323.457 1751.92 337.425 1738.72 355.274C1725.79 372.863 1719.32 392.911 1719.32 415.415C1719.32 434.298 1723.72 450.595 1732.52 464.304C1741.57 478.014 1753.34 489.525 1767.83 498.837C1782.58 507.891 1798.36 515.521 1815.18 521.73C1831.99 527.679 1848.16 532.594 1863.69 536.474L1941.3 556.65C1966.66 562.859 1992.66 571.265 2019.3 581.871C2045.95 592.477 2070.66 606.445 2093.43 623.776C2116.19 641.107 2134.56 662.577 2148.53 688.186C2162.76 713.794 2169.88 744.447 2169.88 780.144C2169.88 825.153 2158.24 865.118 2134.95 900.038C2111.93 934.959 2078.42 962.508 2034.44 982.684C1990.72 1002.86 1937.81 1012.95 1875.72 1012.95C1816.21 1012.95 1764.73 1003.51 1721.26 984.624C1677.8 965.741 1643.78 938.969 1619.2 904.307C1594.62 869.386 1581.04 827.998 1578.45 780.144H1698.75C1701.08 808.856 1710.4 832.784 1726.69 851.925C1743.25 870.808 1764.34 884.906 1789.95 894.218C1815.82 903.272 1844.15 907.799 1874.94 907.799C1908.83 907.799 1938.97 902.496 1965.36 891.89C1992.01 881.026 2012.97 866.023 2028.23 846.881C2043.49 827.481 2051.13 804.847 2051.13 778.98C2051.13 755.44 2044.4 736.169 2030.95 721.166C2017.75 706.163 1999.77 693.747 1977 683.917C1954.5 674.088 1929.01 665.422 1900.55 657.921L1806.64 632.312C1742.99 614.981 1692.54 589.502 1655.29 555.874C1618.29 522.247 1599.79 477.755 1599.79 422.399C1599.79 376.614 1612.21 336.649 1637.05 302.505C1661.89 268.36 1695.52 241.846 1737.95 222.963C1780.38 203.821 1828.24 194.25 1881.54 194.25C1935.35 194.25 1982.83 203.692 2023.96 222.575C2065.36 241.458 2097.95 267.454 2121.76 300.564C2145.56 333.416 2157.98 371.182 2159.01 413.863H2043.37Z"></path>
    <path d="M2260.15 1223.25V403.775H2373.47V500.389H2383.17C2389.9 487.973 2399.6 473.616 2412.27 457.32C2424.95 441.024 2442.54 426.797 2465.05 414.639C2487.56 402.223 2517.31 396.015 2554.31 396.015C2602.43 396.015 2645.38 408.172 2683.15 432.488C2720.93 456.803 2750.55 491.853 2772.02 537.638C2793.75 583.423 2804.62 638.52 2804.62 702.93C2804.62 767.339 2793.88 822.566 2772.41 868.61C2750.94 914.395 2721.44 949.704 2683.93 974.536C2646.41 999.11 2603.6 1011.4 2555.47 1011.4C2519.25 1011.4 2489.63 1005.32 2466.61 993.161C2443.84 981.003 2425.99 966.776 2413.05 950.48C2400.11 934.183 2390.15 919.698 2383.17 907.023H2376.18V1223.25H2260.15ZM2373.86 701.766C2373.86 743.671 2379.93 780.402 2392.09 811.96C2404.25 843.518 2421.85 868.222 2444.87 886.07C2467.9 903.66 2496.1 912.455 2529.47 912.455C2564.14 912.455 2593.12 903.272 2616.4 884.906C2639.69 866.282 2657.28 841.061 2669.18 809.244C2681.34 777.428 2687.42 741.601 2687.42 701.766C2687.42 662.448 2681.47 627.139 2669.57 595.839C2657.93 564.54 2640.33 539.837 2616.79 521.73C2593.51 503.623 2564.4 494.569 2529.47 494.569C2495.84 494.569 2467.38 503.235 2444.1 520.566C2421.07 537.897 2403.61 562.083 2391.71 593.123C2379.81 624.164 2373.86 660.378 2373.86 701.766Z"></path>
    <path d="M3064.38 1012.95C3026.61 1012.95 2992.46 1005.96 2961.93 991.997C2931.4 977.77 2907.21 957.205 2889.36 930.303C2871.77 903.401 2862.97 870.42 2862.97 831.361C2862.97 797.733 2869.44 770.055 2882.38 748.327C2895.31 726.598 2912.77 709.397 2934.77 696.722C2956.76 684.047 2981.33 674.476 3008.5 668.009C3035.67 661.542 3063.35 656.627 3091.55 653.265C3127.25 649.126 3156.23 645.763 3178.48 643.176C3200.73 640.331 3216.9 635.804 3226.99 629.596C3237.08 623.388 3242.12 613.3 3242.12 599.331V596.615C3242.12 562.729 3232.55 536.474 3213.4 517.85C3194.52 499.225 3166.32 489.913 3128.8 489.913C3089.74 489.913 3058.95 498.578 3036.44 515.91C3014.19 532.982 2998.8 551.994 2990.26 572.947L2881.21 548.114C2894.15 511.9 2913.03 482.67 2937.87 460.424C2962.97 437.92 2991.81 421.623 3024.41 411.535C3057.01 401.188 3091.29 396.015 3127.25 396.015C3151.05 396.015 3176.28 398.86 3202.93 404.551C3229.83 409.983 3254.93 420.071 3278.21 434.816C3301.76 449.56 3321.03 470.642 3336.04 498.061C3351.04 525.222 3358.55 560.531 3358.55 603.988V999.757H3245.23V918.275H3240.57C3233.07 933.278 3221.81 948.022 3206.81 962.508C3191.8 976.994 3172.53 989.022 3148.98 998.593C3125.44 1008.16 3097.24 1012.95 3064.38 1012.95ZM3089.61 919.827C3121.69 919.827 3149.11 913.489 3171.88 900.814C3194.91 888.139 3212.37 871.584 3224.27 851.149C3236.43 830.455 3242.51 808.339 3242.51 784.8V707.974C3238.37 712.113 3230.35 715.993 3218.45 719.614C3206.81 722.977 3193.48 725.952 3178.48 728.539C3163.47 730.867 3148.85 733.065 3134.63 735.135C3120.4 736.945 3108.49 738.497 3098.92 739.791C3076.41 742.636 3055.85 747.422 3037.22 754.147C3018.85 760.873 3004.1 770.573 2992.98 783.248C2982.11 795.664 2976.68 812.219 2976.68 832.913C2976.68 861.626 2987.29 883.354 3008.5 898.098C3029.71 912.584 3056.75 919.827 3089.61 919.827Z"></path>
    <path d="M3469.38 999.757V403.775H3581.54V498.449H3587.75C3598.61 466.374 3617.76 441.153 3645.18 422.787C3672.87 404.163 3704.17 394.851 3739.1 394.851C3746.34 394.851 3754.88 395.109 3764.71 395.627C3774.8 396.144 3782.69 396.791 3788.38 397.567V508.537C3783.73 507.244 3775.45 505.821 3763.55 504.269C3751.65 502.458 3739.74 501.553 3727.84 501.553C3700.42 501.553 3675.97 507.373 3654.5 519.014C3633.28 530.395 3616.46 546.304 3604.05 566.739C3591.63 586.915 3585.42 609.937 3585.42 635.804V999.757H3469.38Z"></path>
    <path d="M4291.76 549.278L4186.59 567.903C4182.19 554.452 4175.21 541.647 4165.64 529.49C4156.32 517.332 4143.65 507.373 4127.6 499.613C4111.56 491.853 4091.51 487.973 4067.45 487.973C4034.6 487.973 4007.17 495.345 3985.18 510.089C3963.19 524.575 3952.19 543.329 3952.19 566.351C3952.19 586.268 3959.57 602.306 3974.31 614.464C3989.06 626.621 4012.86 636.58 4045.72 644.341L4140.41 666.069C4195.26 678.744 4236.14 698.274 4263.04 724.658C4289.95 751.043 4303.4 785.317 4303.4 827.481C4303.4 863.178 4293.05 894.994 4272.36 922.931C4251.92 950.609 4223.33 972.338 4186.59 988.117C4150.11 1003.9 4107.81 1011.79 4059.69 1011.79C3992.94 1011.79 3938.48 997.558 3896.31 969.104C3854.14 940.391 3828.27 899.65 3818.7 846.881L3930.85 829.809C3937.83 859.039 3952.19 881.155 3973.93 896.158C3995.66 910.903 4023.99 918.275 4058.92 918.275C4096.95 918.275 4127.35 910.385 4150.11 894.606C4172.88 878.569 4184.26 859.039 4184.26 836.017C4184.26 817.393 4177.28 801.743 4163.31 789.068C4149.6 776.393 4128.51 766.822 4100.05 760.355L3999.15 738.239C3943.53 725.564 3902.39 705.387 3875.74 677.709C3849.35 650.031 3836.16 614.981 3836.16 572.559C3836.16 537.379 3845.99 506.597 3865.65 480.213C3885.32 453.828 3912.48 433.264 3947.15 418.519C3981.82 403.516 4021.53 396.015 4066.29 396.015C4130.71 396.015 4181.42 409.983 4218.41 437.92C4255.41 465.598 4279.86 502.717 4291.76 549.278Z"></path>
    <path d="M4560.74 1012.95C4522.97 1012.95 4488.82 1005.96 4458.29 991.997C4427.76 977.77 4403.57 957.205 4385.72 930.303C4368.13 903.401 4359.33 870.42 4359.33 831.361C4359.33 797.733 4365.8 770.055 4378.73 748.327C4391.67 726.598 4409.13 709.397 4431.12 696.722C4453.11 684.047 4477.69 674.476 4504.86 668.009C4532.02 661.542 4559.71 656.627 4587.91 653.265C4623.61 649.126 4652.59 645.763 4674.84 643.176C4697.09 640.331 4713.26 635.804 4723.35 629.596C4733.44 623.388 4738.48 613.3 4738.48 599.331V596.615C4738.48 562.729 4728.91 536.474 4709.76 517.85C4690.88 499.225 4662.68 489.913 4625.16 489.913C4586.1 489.913 4555.31 498.578 4532.8 515.91C4510.55 532.982 4495.16 551.994 4486.62 572.947L4377.57 548.114C4390.5 511.9 4409.39 482.67 4434.23 460.424C4459.32 437.92 4488.17 421.623 4520.77 411.535C4553.37 401.188 4587.65 396.015 4623.61 396.015C4647.41 396.015 4672.64 398.86 4699.28 404.551C4726.19 409.983 4751.29 420.071 4774.57 434.816C4798.11 449.56 4817.39 470.642 4832.39 498.061C4847.4 525.222 4854.9 560.531 4854.9 603.988V999.757H4741.58V918.275H4736.93C4729.43 933.278 4718.17 948.022 4703.17 962.508C4688.16 976.994 4668.89 989.022 4645.34 998.593C4621.8 1008.16 4593.6 1012.95 4560.74 1012.95ZM4585.97 919.827C4618.05 919.827 4645.47 913.489 4668.24 900.814C4691.26 888.139 4708.73 871.584 4720.63 851.149C4732.79 830.455 4738.87 808.339 4738.87 784.8V707.974C4734.73 712.113 4726.71 715.993 4714.81 719.614C4703.17 722.977 4689.84 725.952 4674.84 728.539C4659.83 730.867 4645.21 733.065 4630.98 735.135C4616.75 736.945 4604.85 738.497 4595.28 739.791C4572.77 742.636 4552.2 747.422 4533.58 754.147C4515.21 760.873 4500.46 770.573 4489.33 783.248C4478.47 795.664 4473.04 812.219 4473.04 832.913C4473.04 861.626 4483.64 883.354 4504.86 898.098C4526.07 912.584 4553.11 919.827 4585.97 919.827Z"></path>
    <path d="M5287.69 999.757H5160.41L5446.42 205.114H5584.96L5870.97 999.757H5743.68L5518.99 349.454H5512.78L5287.69 999.757ZM5309.04 688.574H5721.95V789.456H5309.04V688.574Z"></path>
    <path d="M6061.95 205.114V999.757H5942.03V205.114H6061.95Z"></path>
  </g>

  <defs>
    <pattern id="pattern_sparsa_mark" patternContentUnits="objectBoundingBox" width="1" height="1">
      <use xlink:href="#image_sparsa_mark" transform="scale(0.000364431)"></use>
    </pattern>
    <image id="image_sparsa_mark" width="2744" height="2744" preserveAspectRatio="none"></image>
  </defs>
</svg>