<svg xmlns="http://www.w3.org/2000/svg" width="32" height="32" viewBox="-4.002 -3.001 32 32" fill="none">
  <path d="M 23.724 18.993 C 23.03 17.798 21.999 14.416 21.999 10 C 21.999 7.348 20.945 4.804 19.07 2.929 C 17.194 1.054 14.651 0 11.999 0 C 9.346 0 6.803 1.054 4.927 2.929 C 3.052 4.804 1.999 7.348 1.999 10 C 1.999 14.417 0.966 17.798 0.272 18.993 C 0.095 19.296 0.001 19.641 0 19.993 C -0.001 20.345 0.09 20.691 0.265 20.996 C 0.44 21.301 0.693 21.554 0.997 21.73 C 1.301 21.907 1.647 22 1.999 22 L 7.1 22 C 7.331 23.129 7.944 24.144 8.837 24.872 C 9.729 25.601 10.846 25.999 11.999 25.999 C 13.151 25.999 14.268 25.601 15.16 24.872 C 16.053 24.144 16.667 23.129 16.897 22 L 21.999 22 C 22.35 22 22.695 21.906 22.999 21.73 C 23.304 21.554 23.556 21.3 23.731 20.995 C 23.906 20.69 23.997 20.344 23.996 19.993 C 23.995 19.641 23.901 19.296 23.724 18.993 Z M 11.999 24 C 11.378 24 10.773 23.807 10.267 23.449 C 9.761 23.091 9.378 22.585 9.171 22 L 14.826 22 C 14.619 22.585 14.236 23.091 13.73 23.449 C 13.224 23.807 12.619 24 11.999 24 Z M 1.999 20 C 2.961 18.345 3.999 14.51 3.999 10 C 3.999 7.878 4.841 5.843 6.342 4.343 C 7.842 2.843 9.877 2 11.999 2 C 14.12 2 16.155 2.843 17.655 4.343 C 19.156 5.843 19.999 7.878 19.999 10 C 19.999 14.506 21.034 18.341 21.999 20 L 1.999 20 Z" fill="currentColor" fill-rule="nonzero"></path>
</svg>