<svg xmlns="http://www.w3.org/2000/svg" width="32" height="32" viewBox="-1.000 -2.999 32 32" fill="none">
  <path d="M 29 24.001 L 27 24.001 L 27 10.001 C 27 9.471 26.789 8.962 26.414 8.587 C 26.039 8.212 25.53 8.001 25 8.001 L 17 8.001 L 17 2.001 C 17 1.639 16.902 1.284 16.716 0.973 C 16.53 0.662 16.263 0.408 15.944 0.237 C 15.625 0.066 15.265 -0.015 14.903 0.002 C 14.541 0.02 14.191 0.135 13.89 0.336 L 3.89 7.001 C 3.616 7.184 3.391 7.432 3.236 7.723 C 3.08 8.014 2.999 8.339 3 8.669 L 3 24.001 L 1 24.001 C 0.735 24.001 0.48 24.107 0.293 24.294 C 0.105 24.482 0 24.736 0 25.001 C 0 25.267 0.105 25.521 0.293 25.708 C 0.48 25.896 0.735 26.001 1 26.001 L 29 26.001 C 29.265 26.001 29.52 25.896 29.707 25.708 C 29.895 25.521 30 25.267 30 25.001 C 30 24.736 29.895 24.482 29.707 24.294 C 29.52 24.107 29.265 24.001 29 24.001 Z M 25 10.001 L 25 24.001 L 17 24.001 L 17 10.001 L 25 10.001 Z M 5 8.669 L 15 2.001 L 15 24.001 L 5 24.001 L 5 8.669 Z M 13 12.001 L 13 14.001 C 13 14.267 12.895 14.521 12.707 14.708 C 12.52 14.896 12.265 15.001 12 15.001 C 11.735 15.001 11.48 14.896 11.293 14.708 C 11.105 14.521 11 14.267 11 14.001 L 11 12.001 C 11 11.736 11.105 11.482 11.293 11.294 C 11.48 11.107 11.735 11.001 12 11.001 C 12.265 11.001 12.52 11.107 12.707 11.294 C 12.895 11.482 13 11.736 13 12.001 Z M 9 12.001 L 9 14.001 C 9 14.267 8.895 14.521 8.707 14.708 C 8.52 14.896 8.265 15.001 8 15.001 C 7.735 15.001 7.48 14.896 7.293 14.708 C 7.105 14.521 7 14.267 7 14.001 L 7 12.001 C 7 11.736 7.105 11.482 7.293 11.294 C 7.48 11.107 7.735 11.001 8 11.001 C 8.265 11.001 8.52 11.107 8.707 11.294 C 8.895 11.482 9 11.736 9 12.001 Z M 9 19.001 L 9 21.001 C 9 21.267 8.895 21.521 8.707 21.708 C 8.52 21.896 8.265 22.001 8 22.001 C 7.735 22.001 7.48 21.896 7.293 21.708 C 7.105 21.521 7 21.267 7 21.001 L 7 19.001 C 7 18.736 7.105 18.482 7.293 18.294 C 7.48 18.107 7.735 18.001 8 18.001 C 8.265 18.001 8.52 18.107 8.707 18.294 C 8.895 18.482 9 18.736 9 19.001 Z M 13 19.001 L 13 21.001 C 13 21.267 12.895 21.521 12.707 21.708 C 12.52 21.896 12.265 22.001 12 22.001 C 11.735 22.001 11.48 21.896 11.293 21.708 C 11.105 21.521 11 21.267 11 21.001 L 11 19.001 C 11 18.736 11.105 18.482 11.293 18.294 C 11.48 18.107 11.735 18.001 12 18.001 C 12.265 18.001 12.52 18.107 12.707 18.294 C 12.895 18.482 13 18.736 13 19.001 Z" fill="currentColor" fill-rule="nonzero"></path>
</svg>