<svg xmlns="http://www.w3.org/2000/svg" width="32" height="32" viewBox="-4.000 -3.000 32 32" fill="none">
  <path d="M 22 2 L 19 2 L 19 1 C 19 0.735 18.895 0.48 18.707 0.293 C 18.52 0.105 18.265 0 18 0 C 17.735 0 17.48 0.105 17.293 0.293 C 17.105 0.48 17 0.735 17 1 L 17 2 L 7 2 L 7 1 C 7 0.735 6.895 0.48 6.707 0.293 C 6.52 0.105 6.265 0 6 0 C 5.735 0 5.48 0.105 5.293 0.293 C 5.105 0.48 5 0.735 5 1 L 5 2 L 2 2 C 1.47 2 0.961 2.211 0.586 2.586 C 0.211 2.961 0 3.47 0 4 L 0 24 C 0 24.53 0.211 25.039 0.586 25.414 C 0.961 25.789 1.47 26 2 26 L 22 26 C 22.53 26 23.039 25.789 23.414 25.414 C 23.789 25.039 24 24.53 24 24 L 24 4 C 24 3.47 23.789 2.961 23.414 2.586 C 23.039 2.211 22.53 2 22 2 Z M 5 4 L 5 5 C 5 5.265 5.105 5.52 5.293 5.707 C 5.48 5.895 5.735 6 6 6 C 6.265 6 6.52 5.895 6.707 5.707 C 6.895 5.52 7 5.265 7 5 L 7 4 L 17 4 L 17 5 C 17 5.265 17.105 5.52 17.293 5.707 C 17.48 5.895 17.735 6 18 6 C 18.265 6 18.52 5.895 18.707 5.707 C 18.895 5.52 19 5.265 19 5 L 19 4 L 22 4 L 22 8 L 2 8 L 2 4 L 5 4 Z M 22 24 L 2 24 L 2 10 L 22 10 L 22 24 Z M 17.208 13.292 C 17.3 13.385 17.374 13.496 17.425 13.617 C 17.475 13.738 17.501 13.869 17.501 14 C 17.501 14.131 17.475 14.262 17.425 14.383 C 17.374 14.504 17.3 14.615 17.208 14.708 L 11.208 20.708 C 11.115 20.8 11.004 20.874 10.883 20.925 C 10.762 20.975 10.631 21.001 10.5 21.001 C 10.369 21.001 10.238 20.975 10.117 20.925 C 9.996 20.874 9.885 20.8 9.792 20.708 L 6.792 17.708 C 6.605 17.52 6.499 17.265 6.499 17 C 6.499 16.735 6.605 16.48 6.792 16.292 C 6.98 16.105 7.235 15.999 7.5 15.999 C 7.765 15.999 8.02 16.105 8.208 16.292 L 10.5 18.586 L 15.792 13.292 C 15.885 13.2 15.996 13.126 16.117 13.075 C 16.238 13.025 16.369 12.999 16.5 12.999 C 16.631 12.999 16.762 13.025 16.883 13.075 C 17.004 13.126 17.115 13.2 17.208 13.292 Z" fill="currentColor" fill-rule="nonzero"></path>
</svg>