<svg xmlns="http://www.w3.org/2000/svg" width="32" height="32" viewBox="-3.001 -3.000 32 32" fill="none">
  <path d="M 13.003 0 C 10.758 0 8.552 0.58 6.599 1.685 C 4.645 2.79 3.011 4.383 1.856 6.307 C 0.7 8.231 0.062 10.421 0.004 12.665 C -0.054 14.908 0.47 17.129 1.525 19.11 L 0.107 23.366 C -0.011 23.719 -0.028 24.097 0.057 24.458 C 0.143 24.82 0.327 25.151 0.59 25.413 C 0.852 25.676 1.183 25.86 1.544 25.946 C 1.906 26.031 2.284 26.014 2.637 25.896 L 6.893 24.478 C 8.636 25.405 10.568 25.923 12.542 25.992 C 14.515 26.061 16.479 25.68 18.283 24.877 C 20.087 24.074 21.684 22.871 22.954 21.359 C 24.224 19.846 25.132 18.064 25.61 16.148 C 26.089 14.232 26.124 12.233 25.714 10.301 C 25.304 8.369 24.46 6.556 23.244 5 C 22.029 3.443 20.475 2.184 18.701 1.318 C 16.926 0.451 14.978 0.001 13.003 0 Z M 13.003 24 C 11.069 24.001 9.169 23.492 7.495 22.524 C 7.373 22.453 7.237 22.408 7.096 22.394 C 6.955 22.38 6.812 22.395 6.678 22.44 L 2.003 24 L 3.562 19.325 C 3.607 19.191 3.622 19.048 3.608 18.907 C 3.594 18.766 3.55 18.63 3.479 18.507 C 2.267 16.411 1.78 13.973 2.094 11.572 C 2.409 9.171 3.507 6.94 5.218 5.227 C 6.929 3.513 9.158 2.412 11.559 2.095 C 13.96 1.777 16.399 2.261 18.497 3.471 C 20.594 4.681 22.234 6.549 23.162 8.786 C 24.09 11.023 24.253 13.504 23.627 15.844 C 23.001 18.183 21.62 20.251 19.7 21.725 C 17.779 23.2 15.425 24 13.003 24 Z" fill="currentColor" fill-rule="nonzero"></path>
</svg>