<svg xmlns="http://www.w3.org/2000/svg" width="32" height="32" viewBox="-3.000 -3.000 32 32" fill="none">
  <path d="M 13 0 C 10.429 0 7.915 0.762 5.778 2.191 C 3.64 3.619 1.974 5.65 0.99 8.025 C 0.006 10.401 -0.252 13.014 0.25 15.536 C 0.751 18.058 1.99 20.374 3.808 22.192 C 5.626 24.01 7.942 25.249 10.464 25.75 C 12.986 26.252 15.599 25.994 17.975 25.01 C 20.35 24.026 22.381 22.36 23.809 20.222 C 25.238 18.085 26 15.571 26 13 C 25.996 9.553 24.626 6.249 22.188 3.812 C 19.751 1.374 16.447 0.004 13 0 Z M 13 24 C 10.824 24 8.698 23.355 6.889 22.146 C 5.08 20.937 3.67 19.22 2.837 17.21 C 2.005 15.2 1.787 12.988 2.211 10.854 C 2.636 8.72 3.683 6.76 5.222 5.222 C 6.76 3.683 8.72 2.636 10.854 2.211 C 12.988 1.787 15.2 2.005 17.21 2.837 C 19.22 3.67 20.937 5.08 22.146 6.889 C 23.355 8.698 24 10.824 24 13 C 23.997 15.916 22.837 18.712 20.775 20.775 C 18.712 22.837 15.916 23.997 13 24 Z M 21 13 C 21 13.265 20.895 13.52 20.707 13.707 C 20.52 13.895 20.265 14 20 14 L 13 14 C 12.735 14 12.48 13.895 12.293 13.707 C 12.105 13.52 12 13.265 12 13 L 12 6 C 12 5.735 12.105 5.48 12.293 5.293 C 12.48 5.105 12.735 5 13 5 C 13.265 5 13.52 5.105 13.707 5.293 C 13.895 5.48 14 5.735 14 6 L 14 12 L 20 12 C 20.265 12 20.52 12.105 20.707 12.293 C 20.895 12.48 21 12.735 21 13 Z" fill="currentColor" fill-rule="nonzero"></path>
</svg>