<svg xmlns="http://www.w3.org/2000/svg" width="32" height="32" viewBox="-7.000 -2.000 32 32" fill="none">
  <path d="M 12 13 L 10 13 L 10 5 L 11 5 C 12.061 5 13.078 5.421 13.828 6.172 C 14.579 6.922 15 7.939 15 9 C 15 9.265 15.105 9.52 15.293 9.707 C 15.48 9.895 15.735 10 16 10 C 16.265 10 16.52 9.895 16.707 9.707 C 16.895 9.52 17 9.265 17 9 C 16.998 7.409 16.366 5.884 15.241 4.759 C 14.116 3.634 12.591 3.002 11 3 L 10 3 L 10 1 C 10 0.735 9.895 0.48 9.707 0.293 C 9.52 0.105 9.265 0 9 0 C 8.735 0 8.48 0.105 8.293 0.293 C 8.105 0.48 8 0.735 8 1 L 8 3 L 7 3 C 5.409 3 3.883 3.632 2.757 4.757 C 1.632 5.883 1 7.409 1 9 C 1 10.591 1.632 12.117 2.757 13.243 C 3.883 14.368 5.409 15 7 15 L 8 15 L 8 23 L 6 23 C 4.939 23 3.922 22.579 3.172 21.828 C 2.421 21.078 2 20.061 2 19 C 2 18.735 1.895 18.48 1.707 18.293 C 1.52 18.105 1.265 18 1 18 C 0.735 18 0.48 18.105 0.293 18.293 C 0.105 18.48 0 18.735 0 19 C 0.002 20.591 0.634 22.116 1.759 23.241 C 2.884 24.366 4.409 24.998 6 25 L 8 25 L 8 27 C 8 27.265 8.105 27.52 8.293 27.707 C 8.48 27.895 8.735 28 9 28 C 9.265 28 9.52 27.895 9.707 27.707 C 9.895 27.52 10 27.265 10 27 L 10 25 L 12 25 C 13.591 25 15.117 24.368 16.243 23.243 C 17.368 22.117 18 20.591 18 19 C 18 17.409 17.368 15.883 16.243 14.757 C 15.117 13.632 13.591 13 12 13 Z M 7 13 C 5.939 13 4.922 12.579 4.172 11.828 C 3.421 11.078 3 10.061 3 9 C 3 7.939 3.421 6.922 4.172 6.172 C 4.922 5.421 5.939 5 7 5 L 8 5 L 8 13 L 7 13 Z M 12 23 L 10 23 L 10 15 L 12 15 C 13.061 15 14.078 15.421 14.828 16.172 C 15.579 16.922 16 17.939 16 19 C 16 20.061 15.579 21.078 14.828 21.828 C 14.078 22.579 13.061 23 12 23 Z" fill="currentColor" fill-rule="nonzero"></path>
</svg>