<svg xmlns="http://www.w3.org/2000/svg" width="32" height="32" viewBox="-6.000 -14.500 32 32" fill="none">
  <path d="M 11.5 1.5 C 11.5 1.797 11.412 2.087 11.247 2.333 C 11.082 2.58 10.848 2.772 10.574 2.886 C 10.3 2.999 9.998 3.029 9.707 2.971 C 9.416 2.913 9.149 2.77 8.939 2.561 C 8.73 2.351 8.587 2.084 8.529 1.793 C 8.471 1.502 8.501 1.2 8.614 0.926 C 8.728 0.652 8.92 0.418 9.167 0.253 C 9.413 0.088 9.703 0 10 0 C 10.398 0 10.779 0.158 11.061 0.439 C 11.342 0.721 11.5 1.102 11.5 1.5 Z M 18.5 0 C 18.203 0 17.913 0.088 17.667 0.253 C 17.42 0.418 17.228 0.652 17.114 0.926 C 17.001 1.2 16.971 1.502 17.029 1.793 C 17.087 2.084 17.23 2.351 17.439 2.561 C 17.649 2.77 17.916 2.913 18.207 2.971 C 18.498 3.029 18.8 2.999 19.074 2.886 C 19.348 2.772 19.582 2.58 19.747 2.333 C 19.912 2.087 20 1.797 20 1.5 C 20 1.102 19.842 0.721 19.561 0.439 C 19.279 0.158 18.898 0 18.5 0 Z M 1.5 0 C 1.203 0 0.913 0.088 0.667 0.253 C 0.42 0.418 0.228 0.652 0.114 0.926 C 0.001 1.2 -0.029 1.502 0.029 1.793 C 0.087 2.084 0.23 2.351 0.439 2.561 C 0.649 2.77 0.916 2.913 1.207 2.971 C 1.498 3.029 1.8 2.999 2.074 2.886 C 2.348 2.772 2.582 2.58 2.747 2.333 C 2.912 2.087 3 1.797 3 1.5 C 3 1.102 2.842 0.721 2.561 0.439 C 2.279 0.158 1.898 0 1.5 0 Z" fill="currentColor" fill-rule="nonzero"></path>
</svg>