<svg xmlns="http://www.w3.org/2000/svg" width="32" height="32" viewBox="-3.000 -6.000 32 32" fill="none">
  <path d="M 25 0 L 1 0 C 0.735 0 0.48 0.105 0.293 0.293 C 0.105 0.48 0 0.735 0 1 L 0 18 C 0 18.53 0.211 19.039 0.586 19.414 C 0.961 19.789 1.47 20 2 20 L 24 20 C 24.53 20 25.039 19.789 25.414 19.414 C 25.789 19.039 26 18.53 26 18 L 26 1 C 26 0.735 25.895 0.48 25.707 0.293 C 25.52 0.105 25.265 0 25 0 Z M 13 10.644 L 3.571 2 L 22.429 2 L 13 10.644 Z M 9.339 10 L 2 16.726 L 2 3.274 L 9.339 10 Z M 10.819 11.356 L 12.319 12.737 C 12.503 12.907 12.745 13.001 12.995 13.001 C 13.245 13.001 13.487 12.907 13.671 12.737 L 15.171 11.356 L 22.421 18 L 3.571 18 L 10.819 11.356 Z M 16.661 10 L 24 3.273 L 24 16.728 L 16.661 10 Z" fill="currentColor" fill-rule="nonzero"></path>
</svg>