<svg xmlns="http://www.w3.org/2000/svg" width="32" height="32" viewBox="-5.000 -3.000 32 32" fill="none">
  <path d="M 21.708 7.293 L 14.708 0.293 C 14.615 0.2 14.504 0.126 14.383 0.076 C 14.261 0.026 14.131 0 14 0 L 2 0 C 1.47 0 0.961 0.211 0.586 0.586 C 0.211 0.961 0 1.47 0 2 L 0 24 C 0 24.53 0.211 25.039 0.586 25.414 C 0.961 25.789 1.47 26 2 26 L 20 26 C 20.53 26 21.039 25.789 21.414 25.414 C 21.789 25.039 22 24.53 22 24 L 22 8 C 22 7.869 21.974 7.739 21.924 7.617 C 21.874 7.496 21.8 7.385 21.708 7.293 Z M 15 3.414 L 18.586 7 L 15 7 L 15 3.414 Z M 20 24 L 2 24 L 2 2 L 13 2 L 13 8 C 13 8.265 13.105 8.52 13.293 8.707 C 13.48 8.895 13.735 9 14 9 L 20 9 L 20 24 Z M 16 14 C 16 14.265 15.895 14.52 15.707 14.707 C 15.52 14.895 15.265 15 15 15 L 7 15 C 6.735 15 6.48 14.895 6.293 14.707 C 6.105 14.52 6 14.265 6 14 C 6 13.735 6.105 13.48 6.293 13.293 C 6.48 13.105 6.735 13 7 13 L 15 13 C 15.265 13 15.52 13.105 15.707 13.293 C 15.895 13.48 16 13.735 16 14 Z M 16 18 C 16 18.265 15.895 18.52 15.707 18.707 C 15.52 18.895 15.265 19 15 19 L 7 19 C 6.735 19 6.48 18.895 6.293 18.707 C 6.105 18.52 6 18.265 6 18 C 6 17.735 6.105 17.48 6.293 17.293 C 6.48 17.105 6.735 17 7 17 L 15 17 C 15.265 17 15.52 17.105 15.707 17.293 C 15.895 17.48 16 17.735 16 18 Z" fill="currentColor" fill-rule="nonzero"></path>
</svg>