<svg xmlns="http://www.w3.org/2000/svg" width="32" height="32" viewBox="-2.918 -2.918 32 32" fill="none">
  <path d="M 13.08 7.08 C 11.893 7.08 10.733 7.432 9.747 8.091 C 8.76 8.751 7.991 9.688 7.537 10.784 C 7.083 11.88 6.964 13.087 7.195 14.251 C 7.427 15.415 7.998 16.484 8.837 17.323 C 9.677 18.162 10.746 18.733 11.91 18.965 C 13.073 19.196 14.28 19.078 15.376 18.623 C 16.473 18.169 17.41 17.4 18.069 16.414 C 18.728 15.427 19.08 14.267 19.08 13.08 C 19.078 11.489 18.446 9.964 17.321 8.839 C 16.196 7.714 14.671 7.082 13.08 7.08 Z M 13.08 17.08 C 12.289 17.08 11.516 16.846 10.858 16.406 C 10.2 15.966 9.687 15.342 9.385 14.611 C 9.082 13.88 9.003 13.076 9.157 12.3 C 9.311 11.524 9.692 10.811 10.252 10.252 C 10.811 9.692 11.524 9.311 12.3 9.157 C 13.076 9.003 13.88 9.082 14.611 9.385 C 15.342 9.687 15.966 10.2 16.406 10.858 C 16.846 11.516 17.08 12.289 17.08 13.08 C 17.08 14.141 16.659 15.158 15.909 15.909 C 15.158 16.659 14.141 17.08 13.08 17.08 Z M 24.08 13.35 C 24.085 13.17 24.085 12.99 24.08 12.81 L 25.945 10.48 C 26.043 10.358 26.111 10.214 26.143 10.061 C 26.175 9.908 26.171 9.749 26.13 9.598 C 25.824 8.448 25.367 7.345 24.77 6.316 C 24.692 6.182 24.583 6.067 24.453 5.982 C 24.323 5.897 24.175 5.843 24.02 5.825 L 21.055 5.495 C 20.932 5.365 20.807 5.24 20.68 5.12 L 20.33 2.148 C 20.312 1.993 20.258 1.845 20.173 1.714 C 20.087 1.584 19.972 1.476 19.838 1.398 C 18.809 0.802 17.705 0.345 16.556 0.039 C 16.405 -0.001 16.246 -0.005 16.093 0.027 C 15.94 0.059 15.796 0.127 15.674 0.225 L 13.35 2.08 C 13.17 2.08 12.99 2.08 12.81 2.08 L 10.48 0.219 C 10.358 0.121 10.214 0.053 10.061 0.021 C 9.908 -0.011 9.749 -0.007 9.598 0.034 C 8.449 0.34 7.345 0.797 6.316 1.394 C 6.182 1.472 6.067 1.581 5.982 1.711 C 5.897 1.841 5.843 1.989 5.825 2.144 L 5.495 5.114 C 5.365 5.238 5.24 5.363 5.12 5.489 L 2.148 5.83 C 1.993 5.848 1.845 5.902 1.714 5.988 C 1.584 6.073 1.476 6.188 1.398 6.323 C 0.802 7.352 0.345 8.455 0.039 9.604 C -0.001 9.755 -0.005 9.914 0.027 10.067 C 0.059 10.221 0.127 10.364 0.225 10.486 L 2.08 12.81 C 2.08 12.99 2.08 13.17 2.08 13.35 L 0.219 15.68 C 0.121 15.802 0.053 15.946 0.021 16.099 C -0.011 16.253 -0.007 16.411 0.034 16.563 C 0.34 17.712 0.797 18.815 1.394 19.844 C 1.472 19.978 1.581 20.093 1.711 20.178 C 1.841 20.264 1.989 20.317 2.144 20.335 L 5.109 20.665 C 5.233 20.795 5.358 20.92 5.484 21.04 L 5.83 24.013 C 5.848 24.167 5.902 24.316 5.988 24.446 C 6.073 24.576 6.188 24.685 6.323 24.763 C 7.352 25.358 8.455 25.815 9.604 26.121 C 9.755 26.162 9.914 26.166 10.067 26.133 C 10.221 26.101 10.364 26.033 10.486 25.935 L 12.81 24.08 C 12.99 24.085 13.17 24.085 13.35 24.08 L 15.68 25.945 C 15.802 26.043 15.946 26.111 16.099 26.143 C 16.253 26.175 16.411 26.171 16.563 26.13 C 17.712 25.824 18.815 25.367 19.844 24.77 C 19.978 24.692 20.093 24.583 20.178 24.453 C 20.264 24.323 20.317 24.175 20.335 24.02 L 20.665 21.055 C 20.795 20.932 20.92 20.807 21.04 20.68 L 24.013 20.33 C 24.167 20.312 24.316 20.258 24.446 20.173 C 24.576 20.087 24.685 19.972 24.763 19.838 C 25.358 18.809 25.815 17.705 26.121 16.556 C 26.162 16.405 26.166 16.246 26.133 16.093 C 26.101 15.94 26.033 15.796 25.935 15.674 L 24.08 13.35 Z M 22.068 12.538 C 22.089 12.899 22.089 13.261 22.068 13.623 C 22.053 13.87 22.13 14.114 22.285 14.308 L 24.059 16.524 C 23.855 17.171 23.595 17.798 23.28 18.399 L 20.455 18.719 C 20.209 18.746 19.982 18.864 19.818 19.049 C 19.577 19.319 19.321 19.576 19.05 19.816 C 18.865 19.981 18.747 20.208 18.72 20.454 L 18.406 23.276 C 17.806 23.591 17.178 23.852 16.531 24.055 L 14.314 22.281 C 14.136 22.14 13.916 22.062 13.689 22.063 L 13.629 22.063 C 13.268 22.084 12.905 22.084 12.544 22.063 C 12.296 22.048 12.052 22.125 11.859 22.28 L 9.636 24.055 C 8.99 23.852 8.362 23.591 7.761 23.276 L 7.441 20.455 C 7.414 20.209 7.296 19.982 7.111 19.818 C 6.841 19.577 6.584 19.321 6.344 19.05 C 6.18 18.865 5.952 18.747 5.706 18.72 L 2.884 18.405 C 2.569 17.805 2.309 17.177 2.105 16.53 L 3.879 14.313 C 4.034 14.119 4.111 13.875 4.096 13.628 C 4.075 13.266 4.075 12.904 4.096 12.543 C 4.111 12.295 4.034 12.051 3.879 11.858 L 2.105 9.636 C 2.309 8.99 2.569 8.362 2.884 7.761 L 5.705 7.441 C 5.951 7.414 6.178 7.296 6.343 7.111 C 6.583 6.841 6.84 6.584 7.11 6.344 C 7.296 6.179 7.414 5.952 7.441 5.705 L 7.755 2.884 C 8.356 2.569 8.983 2.309 9.63 2.105 L 11.848 3.879 C 12.041 4.034 12.285 4.111 12.533 4.096 C 12.894 4.075 13.256 4.075 13.618 4.096 C 13.865 4.111 14.109 4.034 14.303 3.879 L 16.524 2.105 C 17.171 2.309 17.798 2.569 18.399 2.884 L 18.719 5.705 C 18.746 5.951 18.864 6.178 19.049 6.343 C 19.319 6.583 19.576 6.84 19.816 7.11 C 19.981 7.295 20.208 7.413 20.454 7.44 L 23.276 7.754 C 23.591 8.355 23.852 8.982 24.055 9.629 L 22.281 11.846 C 22.125 12.042 22.047 12.288 22.064 12.538 L 22.068 12.538 Z" fill="currentColor" fill-rule="nonzero"></path>
</svg>