<svg xmlns="http://www.w3.org/2000/svg" width="32" height="32" viewBox="-5.000 -1.998 32 32" fill="none">
  <path d="M 17 27.003 C 17 27.268 16.895 27.523 16.707 27.71 C 16.52 27.898 16.265 28.003 16 28.003 L 6 28.003 C 5.735 28.003 5.481 27.898 5.293 27.71 C 5.106 27.523 5 27.268 5 27.003 C 5 26.738 5.106 26.484 5.293 26.296 C 5.481 26.109 5.735 26.003 6 26.003 L 16 26.003 C 16.265 26.003 16.52 26.109 16.707 26.296 C 16.895 26.484 17 26.738 17 27.003 Z M 22 11.003 C 22.004 12.67 21.628 14.316 20.899 15.816 C 20.17 17.315 19.109 18.628 17.795 19.654 C 17.55 19.843 17.35 20.085 17.212 20.362 C 17.075 20.639 17.002 20.944 17 21.253 L 17 22.003 C 17 22.534 16.789 23.042 16.414 23.417 C 16.039 23.792 15.531 24.003 15 24.003 L 7 24.003 C 6.47 24.003 5.961 23.792 5.586 23.417 C 5.211 23.042 5 22.534 5 22.003 L 5 21.253 C 5 20.947 4.93 20.646 4.795 20.371 C 4.66 20.097 4.464 19.857 4.221 19.671 C 2.911 18.65 1.85 17.345 1.119 15.854 C 0.388 14.363 0.005 12.725 0 11.064 C -0.032 5.107 4.783 0.146 10.735 0.003 C 12.202 -0.032 13.661 0.226 15.026 0.763 C 16.391 1.3 17.636 2.105 18.685 3.13 C 19.735 4.155 20.569 5.379 21.138 6.732 C 21.708 8.084 22.001 9.536 22 11.003 Z M 20 11.003 C 20.001 9.803 19.761 8.614 19.295 7.508 C 18.829 6.402 18.147 5.4 17.288 4.561 C 16.429 3.722 15.411 3.064 14.294 2.625 C 13.176 2.186 11.983 1.974 10.783 2.003 C 5.908 2.118 1.974 6.177 2 11.052 C 2.005 12.41 2.318 13.75 2.917 14.969 C 3.515 16.188 4.383 17.255 5.455 18.089 C 5.937 18.464 6.327 18.944 6.594 19.492 C 6.862 20.041 7.001 20.643 7 21.253 L 7 22.003 L 15 22.003 L 15 21.253 C 15.002 20.641 15.143 20.038 15.413 19.488 C 15.683 18.939 16.075 18.459 16.559 18.084 C 17.634 17.244 18.503 16.169 19.099 14.942 C 19.696 13.715 20.004 12.368 20 11.003 Z M 17.986 9.836 C 17.727 8.387 17.03 7.053 15.99 6.013 C 14.949 4.972 13.615 4.276 12.166 4.017 C 12.037 3.995 11.904 3.999 11.776 4.028 C 11.648 4.058 11.527 4.112 11.42 4.188 C 11.313 4.264 11.222 4.361 11.153 4.472 C 11.083 4.583 11.036 4.707 11.014 4.837 C 10.992 4.966 10.996 5.099 11.025 5.227 C 11.055 5.355 11.109 5.476 11.185 5.583 C 11.261 5.69 11.358 5.781 11.469 5.851 C 11.58 5.92 11.704 5.968 11.834 5.989 C 13.905 6.338 15.663 8.096 16.014 10.171 C 16.053 10.404 16.174 10.615 16.355 10.767 C 16.535 10.92 16.764 11.003 17 11.003 C 17.057 11.003 17.113 10.998 17.169 10.989 C 17.43 10.945 17.663 10.798 17.817 10.582 C 17.97 10.365 18.031 10.097 17.986 9.836 Z" fill="currentColor" fill-rule="nonzero"></path>
</svg>