<svg xmlns="http://www.w3.org/2000/svg" width="32" height="32" viewBox="-4.000 -4.000 32 32" fill="none">
  <path d="M 24 12 C 24 12.265 23.895 12.52 23.707 12.707 C 23.52 12.895 23.265 13 23 13 L 13 13 L 13 23 C 13 23.265 12.895 23.52 12.707 23.707 C 12.52 23.895 12.265 24 12 24 C 11.735 24 11.48 23.895 11.293 23.707 C 11.105 23.52 11 23.265 11 23 L 11 13 L 1 13 C 0.735 13 0.48 12.895 0.293 12.707 C 0.105 12.52 0 12.265 0 12 C 0 11.735 0.105 11.48 0.293 11.293 C 0.48 11.105 0.735 11 1 11 L 11 11 L 11 1 C 11 0.735 11.105 0.48 11.293 0.293 C 11.48 0.105 11.735 0 12 0 C 12.265 0 12.52 0.105 12.707 0.293 C 12.895 0.48 13 0.735 13 1 L 13 11 L 23 11 C 23.265 11 23.52 11.105 23.707 11.293 C 23.895 11.48 24 11.735 24 12 Z" fill="currentColor" fill-rule="nonzero"></path>
</svg>