<svg xmlns="http://www.w3.org/2000/svg" width="32" height="32" viewBox="-1.498 -1.498 32 32" fill="none">
  <path d="M 22.703 15.132 L 16.255 12.75 L 13.88 6.298 C 13.739 5.915 13.485 5.586 13.151 5.353 C 12.817 5.12 12.42 4.995 12.013 4.995 C 11.605 4.995 11.208 5.12 10.874 5.353 C 10.54 5.586 10.286 5.915 10.145 6.298 L 7.755 12.75 L 1.303 15.125 C 0.92 15.266 0.591 15.52 0.358 15.854 C 0.125 16.188 0 16.585 0 16.993 C 0 17.4 0.125 17.797 0.358 18.131 C 0.591 18.465 0.92 18.719 1.303 18.86 L 7.755 21.25 L 10.13 27.702 C 10.271 28.085 10.525 28.414 10.859 28.647 C 11.193 28.88 11.59 29.005 11.998 29.005 C 12.405 29.005 12.802 28.88 13.136 28.647 C 13.47 28.414 13.724 28.085 13.865 27.702 L 16.255 21.25 L 22.708 18.875 C 23.09 18.734 23.419 18.48 23.652 18.146 C 23.885 17.812 24.01 17.415 24.01 17.007 C 24.01 16.6 23.885 16.203 23.652 15.869 C 23.419 15.535 23.09 15.281 22.708 15.14 L 22.703 15.132 Z M 15.13 19.528 C 14.994 19.578 14.871 19.656 14.769 19.759 C 14.666 19.861 14.588 19.984 14.538 20.12 L 12.005 26.981 L 9.478 20.125 C 9.428 19.988 9.348 19.863 9.245 19.76 C 9.142 19.657 9.017 19.577 8.88 19.528 L 2.024 17 L 8.88 14.472 C 9.017 14.423 9.142 14.343 9.245 14.24 C 9.348 14.137 9.428 14.012 9.478 13.875 L 12.005 7.019 L 14.533 13.875 C 14.583 14.011 14.661 14.134 14.764 14.236 C 14.866 14.339 14.989 14.417 15.125 14.467 L 21.986 17 L 15.13 19.528 Z M 16.005 4 C 16.005 3.735 16.11 3.48 16.298 3.293 C 16.486 3.105 16.74 3 17.005 3 L 19.005 3 L 19.005 1 C 19.005 0.735 19.11 0.48 19.298 0.293 C 19.486 0.105 19.74 0 20.005 0 C 20.27 0 20.525 0.105 20.712 0.293 C 20.9 0.48 21.005 0.735 21.005 1 L 21.005 3 L 23.005 3 C 23.27 3 23.525 3.105 23.712 3.293 C 23.9 3.48 24.005 3.735 24.005 4 C 24.005 4.265 23.9 4.52 23.712 4.707 C 23.525 4.895 23.27 5 23.005 5 L 21.005 5 L 21.005 7 C 21.005 7.265 20.9 7.52 20.712 7.707 C 20.525 7.895 20.27 8 20.005 8 C 19.74 8 19.486 7.895 19.298 7.707 C 19.11 7.52 19.005 7.265 19.005 7 L 19.005 5 L 17.005 5 C 16.74 5 16.486 4.895 16.298 4.707 C 16.11 4.52 16.005 4.265 16.005 4 Z M 29.005 10 C 29.005 10.265 28.9 10.52 28.712 10.707 C 28.525 10.895 28.27 11 28.005 11 L 27.005 11 L 27.005 12 C 27.005 12.265 26.9 12.52 26.712 12.707 C 26.525 12.895 26.27 13 26.005 13 C 25.74 13 25.486 12.895 25.298 12.707 C 25.11 12.52 25.005 12.265 25.005 12 L 25.005 11 L 24.005 11 C 23.74 11 23.486 10.895 23.298 10.707 C 23.11 10.52 23.005 10.265 23.005 10 C 23.005 9.735 23.11 9.48 23.298 9.293 C 23.486 9.105 23.74 9 24.005 9 L 25.005 9 L 25.005 8 C 25.005 7.735 25.11 7.48 25.298 7.293 C 25.486 7.105 25.74 7 26.005 7 C 26.27 7 26.525 7.105 26.712 7.293 C 26.9 7.48 27.005 7.735 27.005 8 L 27.005 9 L 28.005 9 C 28.27 9 28.525 9.105 28.712 9.293 C 28.9 9.48 29.005 9.735 29.005 10 Z" fill="currentColor" fill-rule="nonzero"></path>
</svg>