<svg xmlns="http://www.w3.org/2000/svg" width="32" height="32" viewBox="-2.988 -3.487 32 32" fill="none">
  <path d="M 25.878 23.503 C 23.974 20.212 21.04 17.852 17.616 16.733 C 19.31 15.725 20.626 14.189 21.362 12.361 C 22.098 10.532 22.213 8.513 21.69 6.613 C 21.167 4.712 20.035 3.036 18.468 1.842 C 16.9 0.647 14.983 0 13.013 0 C 11.042 0 9.125 0.647 7.558 1.842 C 5.99 3.036 4.858 4.712 4.335 6.613 C 3.812 8.513 3.928 10.532 4.664 12.361 C 5.399 14.189 6.715 15.725 8.409 16.733 C 4.985 17.851 2.051 20.211 0.148 23.503 C 0.078 23.617 0.031 23.744 0.011 23.876 C -0.009 24.008 -0.002 24.143 0.031 24.272 C 0.064 24.402 0.122 24.523 0.203 24.63 C 0.283 24.736 0.384 24.825 0.5 24.892 C 0.615 24.959 0.743 25.002 0.876 25.018 C 1.008 25.035 1.143 25.025 1.271 24.989 C 1.4 24.952 1.52 24.891 1.624 24.808 C 1.728 24.724 1.815 24.621 1.879 24.503 C 4.234 20.433 8.396 18.003 13.013 18.003 C 17.629 18.003 21.791 20.433 24.146 24.503 C 24.21 24.621 24.297 24.724 24.401 24.808 C 24.505 24.891 24.625 24.952 24.754 24.989 C 24.882 25.025 25.017 25.035 25.149 25.018 C 25.282 25.002 25.41 24.959 25.525 24.892 C 25.641 24.825 25.742 24.736 25.823 24.63 C 25.903 24.523 25.962 24.402 25.994 24.272 C 26.027 24.143 26.034 24.008 26.014 23.876 C 25.994 23.744 25.947 23.617 25.878 23.503 Z M 6.013 9.003 C 6.013 7.619 6.423 6.266 7.192 5.114 C 7.961 3.963 9.055 3.066 10.334 2.536 C 11.613 2.006 13.02 1.868 14.378 2.138 C 15.736 2.408 16.983 3.075 17.962 4.054 C 18.941 5.033 19.608 6.28 19.878 7.638 C 20.148 8.996 20.01 10.403 19.48 11.682 C 18.95 12.961 18.053 14.055 16.902 14.824 C 15.75 15.593 14.397 16.003 13.013 16.003 C 11.157 16.001 9.377 15.263 8.065 13.951 C 6.753 12.639 6.015 10.859 6.013 9.003 Z" fill="currentColor" fill-rule="nonzero"></path>
</svg>