<svg xmlns="http://www.w3.org/2000/svg" width="32" height="32" viewBox="-1.999 -3.500 32 32" fill="none">
  <path d="M 27.601 20.511 L 16.67 1.528 C 16.397 1.062 16.007 0.677 15.539 0.409 C 15.071 0.141 14.541 0 14.001 0 C 13.462 0 12.932 0.141 12.464 0.409 C 11.996 0.677 11.606 1.062 11.333 1.528 L 0.401 20.511 C 0.139 20.961 0 21.473 0 21.994 C 0 22.515 0.139 23.026 0.401 23.476 C 0.671 23.944 1.06 24.332 1.529 24.6 C 1.998 24.868 2.53 25.006 3.07 25 L 24.933 25 C 25.472 25.005 26.003 24.867 26.472 24.599 C 26.94 24.331 27.329 23.944 27.599 23.476 C 27.862 23.027 28.001 22.515 28.001 21.994 C 28.002 21.473 27.864 20.961 27.601 20.511 Z M 25.868 22.475 C 25.772 22.638 25.635 22.772 25.471 22.864 C 25.307 22.956 25.121 23.003 24.933 23 L 3.07 23 C 2.882 23.003 2.696 22.956 2.532 22.864 C 2.367 22.772 2.23 22.638 2.135 22.475 C 2.049 22.329 2.003 22.162 2.003 21.993 C 2.003 21.823 2.049 21.656 2.135 21.51 L 13.066 2.526 C 13.164 2.365 13.301 2.231 13.465 2.138 C 13.63 2.045 13.815 1.996 14.004 1.996 C 14.193 1.996 14.378 2.045 14.542 2.138 C 14.707 2.231 14.844 2.365 14.941 2.526 L 25.873 21.51 C 25.958 21.657 26.003 21.824 26.002 21.993 C 26.001 22.163 25.955 22.329 25.868 22.475 Z M 13.001 15 L 13.001 10 C 13.001 9.735 13.107 9.481 13.294 9.293 C 13.482 9.105 13.736 9 14.001 9 C 14.267 9 14.521 9.105 14.708 9.293 C 14.896 9.481 15.001 9.735 15.001 10 L 15.001 15 C 15.001 15.265 14.896 15.52 14.708 15.707 C 14.521 15.895 14.267 16 14.001 16 C 13.736 16 13.482 15.895 13.294 15.707 C 13.107 15.52 13.001 15.265 13.001 15 Z M 15.501 19.5 C 15.501 19.797 15.413 20.087 15.249 20.333 C 15.084 20.58 14.849 20.772 14.575 20.886 C 14.301 20.999 14 21.029 13.709 20.971 C 13.418 20.913 13.15 20.771 12.941 20.561 C 12.731 20.351 12.588 20.084 12.53 19.793 C 12.472 19.502 12.502 19.2 12.616 18.926 C 12.729 18.652 12.921 18.418 13.168 18.253 C 13.415 18.088 13.705 18 14.001 18 C 14.399 18 14.781 18.158 15.062 18.439 C 15.343 18.721 15.501 19.102 15.501 19.5 Z" fill="currentColor" fill-rule="nonzero"></path>
</svg>