<svg xmlns="http://www.w3.org/2000/svg" width="32" height="32" viewBox="-5.999 -5.999 32 32" fill="none">
  <path d="M 19.708 18.293 C 19.801 18.386 19.875 18.496 19.925 18.618 C 19.975 18.739 20.001 18.869 20.001 19.001 C 20.001 19.132 19.975 19.262 19.925 19.383 C 19.875 19.505 19.801 19.615 19.708 19.708 C 19.615 19.801 19.505 19.875 19.383 19.925 C 19.262 19.975 19.132 20.001 19.001 20.001 C 18.869 20.001 18.739 19.975 18.618 19.925 C 18.496 19.875 18.386 19.801 18.293 19.708 L 10.001 11.414 L 1.708 19.708 C 1.52 19.896 1.266 20.001 1.001 20.001 C 0.735 20.001 0.481 19.896 0.293 19.708 C 0.105 19.52 0 19.266 0 19.001 C 0 18.735 0.105 18.481 0.293 18.293 L 8.587 10.001 L 0.293 1.708 C 0.105 1.52 0 1.266 0 1.001 C 0 0.735 0.105 0.481 0.293 0.293 C 0.481 0.105 0.735 0 1.001 0 C 1.266 0 1.52 0.105 1.708 0.293 L 10.001 8.587 L 18.293 0.293 C 18.481 0.105 18.735 0 19.001 0 C 19.266 0 19.52 0.105 19.708 0.293 C 19.896 0.481 20.001 0.735 20.001 1.001 C 20.001 1.266 19.896 1.52 19.708 1.708 L 11.414 10.001 L 19.708 18.293 Z" fill="currentColor" fill-rule="nonzero"></path>
</svg>